<?xml version="1.0" encoding="UTF-8"?>
<!DOCTYPE svg PUBLIC "-//W3C//DTD SVG 1.1//EN" "http://www.w3.org/Graphics/SVG/1.1/DTD/svg11.dtd">
<svg xmlns="http://www.w3.org/2000/svg" version="1.1" width="500px" height="556px" style="shape-rendering:geometricPrecision; text-rendering:geometricPrecision; image-rendering:optimizeQuality; fill-rule:evenodd; clip-rule:evenodd" xmlns:xlink="http://www.w3.org/1999/xlink">
<g><path style="opacity:1" fill="#9f20f0" d="M -0.5,240.5 C -0.5,228.5 -0.5,216.5 -0.5,204.5C 10.5044,116.374 56.1711,53.8743 136.5,17C 163.753,6.17591 192.086,0.675912 221.5,0.5C 221.5,148.5 221.5,296.5 221.5,444.5C 131.299,441.383 64.7987,400.383 22,321.5C 9.69436,295.761 2.19436,268.761 -0.5,240.5 Z M 176.5,50.5 C 177.832,165.001 177.832,279.667 176.5,394.5C 114.926,376.305 73.4259,336.971 52,276.5C 32.8201,204.493 49.6534,142.66 102.5,91C 124.138,72.0134 148.805,58.5134 176.5,50.5 Z"/></g>
<g><path style="opacity:1" fill="#fec0ca" d="M 499.5,332.5 C 499.5,332.833 499.5,333.167 499.5,333.5C 495.962,419.143 457.628,483.976 384.5,528C 355.282,543.352 324.282,552.519 291.5,555.5C 286.5,555.5 281.5,555.5 276.5,555.5C 276.5,407.5 276.5,259.5 276.5,111.5C 369.612,114.78 437.112,157.78 479,240.5C 491.858,269.922 498.691,300.589 499.5,332.5 Z M 320.5,161.5 C 380.161,178.323 421.327,215.656 444,273.5C 465.405,342.53 452.072,403.864 404,457.5C 380.568,480.419 353.068,496.419 321.5,505.5C 320.5,390.835 320.167,276.169 320.5,161.5 Z"/></g>
</svg>
