<?xml version="1.0" standalone="no"?>
<!DOCTYPE svg PUBLIC "-//W3C//DTD SVG 20010904//EN"
 "http://www.w3.org/TR/2001/REC-SVG-20010904/DTD/svg10.dtd">
<svg version="1.0" xmlns="http://www.w3.org/2000/svg"
 width="500.000000pt" height="556.000000pt" viewBox="0 0 500.000000 556.000000"
 preserveAspectRatio="xMidYMid meet">

<g transform="translate(0.000000,556.000000) scale(0.100000,-0.100000)"
fill="#000000" stroke="none">
<path d="M2030 5540 c-156 -12 -345 -50 -495 -99 -66 -21 -172 -61 -200 -74
-16 -8 -64 -31 -105 -51 -368 -178 -693 -478 -917 -846 -200 -329 -313 -741
-313 -1140 0 -140 19 -341 39 -431 30 -131 43 -181 65 -249 34 -103 74 -211
84 -224 5 -6 15 -27 22 -46 32 -81 215 -383 249 -410 3 -3 24 -27 46 -55 51
-65 213 -228 290 -292 363 -303 827 -486 1291 -509 l134 -7 0 2221 0 2222 -47
-2 c-27 0 -91 -4 -143 -8z m-254 -3927 c-9 -9 -211 64 -311 113 -186 90 -266
142 -413 269 -91 78 -218 215 -252 271 -8 13 -18 24 -22 24 -5 0 -8 4 -8 9 0
4 -20 38 -45 75 -125 187 -223 447 -261 695 -18 122 -18 409 0 521 13 75 22
115 56 248 23 91 115 298 175 393 14 21 25 41 25 44 0 6 93 135 127 176 210
254 512 461 823 563 l105 35 3 -1716 c1 -944 0 -1718 -2 -1720z"/>
</g>
</svg>
